<?xml version="1.0" encoding="UTF-8" standalone="no"?>
<svg
   xmlns:dc="http://purl.org/dc/elements/1.1/"
   xmlns:cc="http://creativecommons.org/ns#"
   xmlns:rdf="http://www.w3.org/1999/02/22-rdf-syntax-ns#"
   xmlns:svg="http://www.w3.org/2000/svg"
   xmlns="http://www.w3.org/2000/svg"
   xmlns:sodipodi="http://sodipodi.sourceforge.net/DTD/sodipodi-0.dtd"
   xmlns:inkscape="http://www.inkscape.org/namespaces/inkscape"
   inkscape:version="1.0 (4035a4fb49, 2020-05-01)"
   sodipodi:docname="Connected.svg"
   id="svg8"
   version="1.1"
   viewBox="0 0 73.025 73.735005"
   height="278.68347"
   width="276">
  <defs
     id="defs2" />
  <sodipodi:namedview
     inkscape:window-maximized="1"
     inkscape:window-y="27"
     inkscape:window-x="2560"
     inkscape:window-height="1376"
     inkscape:window-width="3440"
     fit-margin-bottom="10"
     fit-margin-right="10"
     fit-margin-left="10"
     fit-margin-top="10"
     lock-margins="true"
     units="px"
     showgrid="false"
     inkscape:document-rotation="0"
     inkscape:current-layer="layer2"
     inkscape:document-units="px"
     inkscape:cy="242.40693"
     inkscape:cx="534.48237"
     inkscape:zoom="1.4"
     inkscape:pageshadow="2"
     inkscape:pageopacity="0.0"
     borderopacity="1.0"
     bordercolor="#666666"
     pagecolor="#ffffff"
     id="base" />
  <metadata
     id="metadata5">
    <rdf:RDF>
      <cc:Work
         rdf:about="">
        <dc:format>image/svg+xml</dc:format>
        <dc:type
           rdf:resource="http://purl.org/dc/dcmitype/StillImage" />
        <dc:title></dc:title>
      </cc:Work>
    </rdf:RDF>
  </metadata>
  <g
     transform="translate(4.8489065,-70.781109)"
     inkscape:label="Layer 2"
     id="layer2"
     inkscape:groupmode="layer">
    <path
       sodipodi:nodetypes="sasassss"
       d="m 50.922859,109.25089 c -2.875582,2.87558 -2.646341,4.57795 -4.878812,4.58841 -4.949333,0.0232 -7.99404,-7.15359 -10.911048,-10.07059 -2.917009,-2.91701 -10.169669,-5.962658 -10.0706,-10.911056 0.04467,-2.231 1.858033,-1.858031 4.733614,-4.733612 5.751171,-5.751173 15.142824,-5.684011 20.976843,0.15 5.834016,5.834018 5.901177,15.225668 0.149999,20.976838 z"
       style="fill:#ffffff;fill-opacity:1;stroke-width:1.32292;stroke-linecap:round;stroke-linejoin:round"
       id="path860" />
    <rect
       transform="rotate(45)"
       ry="2.9245474"
       y="46.596691"
       x="77.302124"
       height="5.8490949"
       width="41.910904"
       id="rect863"
       style="fill:#ffffff;fill-opacity:1;stroke-width:1.32292;stroke-linecap:round;stroke-linejoin:round" />
    <path
       sodipodi:nodetypes="asssssa"
       d="m 65.015625,73.941577 c 1.149946,1.149947 0.244221,2.967712 -1.44727,4.659203 L 48.59143,93.577702 c -1.691501,1.691504 -3.769494,2.336973 -4.659199,1.447268 -0.889705,-0.889705 -0.244233,-2.967697 1.447268,-4.659199 L 60.356424,75.388849 c 1.691491,-1.691491 3.509256,-2.597218 4.659201,-1.447272 z"
       style="fill:#ffffff;fill-opacity:1;stroke-width:1.32292;stroke-linecap:round;stroke-linejoin:round"
       id="rect871" />
    <path
       id="path860-3"
       style="fill:#ffffff;fill-opacity:1;stroke-width:1.32292;stroke-linecap:round;stroke-linejoin:round"
       d="m 12.404316,106.04634 c 2.875581,-2.87558 2.646341,-4.57796 4.878813,-4.58842 4.949333,-0.0232 7.99404,7.15359 10.911048,10.0706 2.917008,2.91701 10.169665,5.96266 10.070598,10.91105 -0.04467,2.231 -1.858033,1.85803 -4.733614,4.73362 -5.75116,5.75115 -15.142821,5.68401 -20.976837,-0.14998 -5.8340187,-5.83401 -5.9011714,-15.22567 -0.15,-20.97683 z"
       sodipodi:nodetypes="sasassss" />
    <rect
       transform="rotate(-135)"
       style="fill:#ffffff;fill-opacity:1;stroke-width:1.32292;stroke-linecap:round;stroke-linejoin:round"
       id="rect863-6"
       width="41.9109"
       height="5.8490949"
       x="-119.71507"
       y="-60.862263"
       ry="2.9245474" />
    <path
       id="rect871-7"
       style="fill:#ffffff;fill-opacity:1;stroke-width:1.32292;stroke-linecap:round;stroke-linejoin:round"
       d="m -1.6884368,141.35564 c -1.1499465,-1.14994 -0.2442294,-2.9677 1.44726989,-4.65921 L 14.735747,121.71952 c 1.6915,-1.6915 3.769496,-2.33697 4.659201,-1.44727 0.889706,0.88971 0.244228,2.9677 -1.447269,4.6592 L 2.9707622,139.90837 c -1.6914973,1.69149 -3.50925446,2.59722 -4.659199,1.44727 z"
       sodipodi:nodetypes="asssssa" />
    <g
       style="stroke-width:0.499458;fill:#ffffff;fill-opacity:1"
       transform="matrix(2.0021722,0,0,2.0021722,-80.081052,-74.34404)"
       id="g953">
      <path
         id="path898"
         style="opacity:1;fill:#ffffff;fill-opacity:1;stroke-width:0.660742;stroke-linecap:round;stroke-linejoin:round"
         d="m 83.538528,93.965401 c 1.420734,-1.420732 1.307473,-2.26182 2.410466,-2.266988 2.445308,-0.01146 3.949602,3.53436 5.390803,4.975561 1.4412,1.4412 5.02451,2.94596 4.975561,5.390806 -0.02207,1.10226 -0.917995,0.91799 -2.338728,2.33872 -2.841465,2.84147 -7.481586,2.80829 -10.363988,-0.0741 -2.882403,-2.8824 -2.915581,-7.522523 -0.07411,-10.363989 z"
         sodipodi:nodetypes="sasassss" />
      <rect
         transform="rotate(-135)"
         style="opacity:1;fill:#ffffff;fill-opacity:1;stroke-width:0.660742;stroke-linecap:round;stroke-linejoin:round"
         id="rect900"
         width="20.706842"
         height="2.8898518"
         x="-143.27985"
         y="-4.7283406"
         ry="1.4449259" />
      <path
         id="path902"
         style="opacity:1;fill:#ffffff;fill-opacity:1;stroke-width:0.660742;stroke-linecap:round;stroke-linejoin:round"
         d="m 80.244508,107.74184 c -0.568152,-0.56815 -0.357624,-1.22929 0.183751,-1.77066 l 4.793455,-4.79346 c 0.541375,-0.54137 1.331089,-0.62332 1.770664,-0.18375 0.439575,0.43958 0.357623,1.22929 -0.183752,1.77067 l -4.793455,4.79345 c -0.541374,0.54138 -1.202512,0.7519 -1.770663,0.18375 z"
         sodipodi:nodetypes="asssssa" />
      <path
         sodipodi:nodetypes="sasassss"
         d="m 110.10634,88.296376 c -1.42073,1.420733 -1.30748,2.261817 -2.41047,2.266984 -2.44531,0.01145 -3.9496,-3.53436 -5.3908,-4.975556 -1.4412,-1.441204 -5.024505,-2.945959 -4.975558,-5.390804 0.02207,-1.102266 0.917994,-0.917995 2.338727,-2.338728 2.841471,-2.841466 7.481591,-2.808292 10.363991,0.07411 2.8824,2.882407 2.91558,7.522529 0.0741,10.363995 z"
         style="opacity:1;fill:#ffffff;fill-opacity:1;stroke-width:0.660742;stroke-linecap:round;stroke-linejoin:round"
         id="path898-5" />
      <rect
         ry="1.4449259"
         y="-12.777404"
         x="122.52629"
         height="2.8898518"
         width="20.706841"
         id="rect900-3"
         style="opacity:1;fill:#ffffff;fill-opacity:1;stroke-width:0.660742;stroke-linecap:round;stroke-linejoin:round"
         transform="rotate(45)" />
      <path
         sodipodi:nodetypes="asssssa"
         d="m 113.40037,74.519933 c 0.56814,0.568146 0.35762,1.229284 -0.18376,1.770659 l -4.79346,4.793458 c -0.54137,0.541375 -1.33108,0.623328 -1.77066,0.183755 -0.43958,-0.43958 -0.35762,-1.229291 0.18375,-1.770666 l 4.79346,-4.793457 c 0.54138,-0.541376 1.20251,-0.751902 1.77067,-0.183749 z"
         style="opacity:1;fill:#ffffff;fill-opacity:1;stroke-width:0.660742;stroke-linecap:round;stroke-linejoin:round"
         id="path902-5" />
      <path
         id="path931"
         style="opacity:1;fill:#ffffff;fill-opacity:1;stroke-width:0.660742;stroke-linecap:round;stroke-linejoin:round"
         d="m 99.280275,82.65319 c 0.568146,0.568146 0.357619,1.229284 -0.183756,1.770659 l -4.793458,4.793458 c -0.541375,0.541375 -1.331086,0.623329 -1.770659,0.183756 -0.43958,-0.43958 -0.357626,-1.229291 0.183749,-1.770666 l 4.793458,-4.793458 c 0.541375,-0.541375 1.202513,-0.751902 1.770666,-0.183749 z"
         sodipodi:nodetypes="asssssa" />
      <path
         sodipodi:nodetypes="asssssa"
         d="m 105.26711,88.640027 c 0.56815,0.568146 0.35762,1.229284 -0.18375,1.770659 l -4.79346,4.793458 c -0.541377,0.541375 -1.331088,0.623329 -1.770661,0.183756 -0.43958,-0.43958 -0.357626,-1.229291 0.183749,-1.770666 l 4.793462,-4.793458 c 0.54137,-0.541375 1.20251,-0.751902 1.77066,-0.183749 z"
         style="opacity:1;fill:#ffffff;fill-opacity:1;stroke-width:0.660742;stroke-linecap:round;stroke-linejoin:round"
         id="path933" />
    </g>
  </g>
</svg>
