<?xml version="1.0" encoding="UTF-8" standalone="no"?>
<svg
   xmlns:dc="http://purl.org/dc/elements/1.1/"
   xmlns:cc="http://creativecommons.org/ns#"
   xmlns:rdf="http://www.w3.org/1999/02/22-rdf-syntax-ns#"
   xmlns:svg="http://www.w3.org/2000/svg"
   xmlns="http://www.w3.org/2000/svg"
   xmlns:sodipodi="http://sodipodi.sourceforge.net/DTD/sodipodi-0.dtd"
   xmlns:inkscape="http://www.inkscape.org/namespaces/inkscape"
   width="276"
   height="276.49985"
   viewBox="0 0 73.025 73.157254"
   version="1.1"
   id="svg8"
   sodipodi:docname="Disconnected.svg"
   inkscape:version="1.0 (4035a4fb49, 2020-05-01)">
  <defs
     id="defs2" />
  <sodipodi:namedview
     id="base"
     pagecolor="#ffffff"
     bordercolor="#666666"
     borderopacity="1.0"
     inkscape:pageopacity="0.0"
     inkscape:pageshadow="2"
     inkscape:zoom="1.4"
     inkscape:cx="534.48237"
     inkscape:cy="242.40693"
     inkscape:document-units="px"
     inkscape:current-layer="layer2"
     inkscape:document-rotation="0"
     showgrid="false"
     units="px"
     lock-margins="true"
     fit-margin-top="10"
     fit-margin-left="10"
     fit-margin-right="10"
     fit-margin-bottom="10"
     inkscape:window-width="3440"
     inkscape:window-height="1376"
     inkscape:window-x="2560"
     inkscape:window-y="27"
     inkscape:window-maximized="1" />
  <metadata
     id="metadata5">
    <rdf:RDF>
      <cc:Work
         rdf:about="">
        <dc:format>image/svg+xml</dc:format>
        <dc:type
           rdf:resource="http://purl.org/dc/dcmitype/StillImage" />
        <dc:title />
      </cc:Work>
    </rdf:RDF>
  </metadata>
  <g
     inkscape:groupmode="layer"
     id="layer2"
     inkscape:label="Layer 2"
     transform="translate(-77.261637,-71.537061)">
    <path
       id="path860"
       style="fill:#ffffff;fill-opacity:1;stroke-width:1.32292;stroke-linecap:round;stroke-linejoin:round"
       d="m 50.922859,109.25089 c -2.875582,2.87558 -2.646341,4.57795 -4.878812,4.58841 -4.949333,0.0232 -7.99404,-7.15359 -10.911048,-10.07059 -2.917009,-2.91701 -10.169669,-5.962658 -10.0706,-10.911056 0.04467,-2.231 1.858033,-1.858031 4.733614,-4.733612 5.751171,-5.751173 15.142824,-5.684011 20.976843,0.15 5.834016,5.834018 5.901177,15.225668 0.149999,20.976838 z"
       sodipodi:nodetypes="sasassss" />
    <rect
       style="fill:#ffffff;fill-opacity:1;stroke-width:1.32292;stroke-linecap:round;stroke-linejoin:round"
       id="rect863"
       width="41.910904"
       height="5.8490949"
       x="77.302124"
       y="46.596691"
       ry="2.9245474"
       transform="rotate(45)" />
    <path
       id="rect871"
       style="fill:#ffffff;fill-opacity:1;stroke-width:1.32292;stroke-linecap:round;stroke-linejoin:round"
       d="m 65.015625,73.941577 c 1.149946,1.149947 0.244221,2.967712 -1.44727,4.659203 L 48.59143,93.577702 c -1.691501,1.691504 -3.769494,2.336973 -4.659199,1.447268 -0.889705,-0.889705 -0.244233,-2.967697 1.447268,-4.659199 L 60.356424,75.388849 c 1.691491,-1.691491 3.509256,-2.597218 4.659201,-1.447272 z"
       sodipodi:nodetypes="asssssa" />
    <path
       sodipodi:nodetypes="sasassss"
       d="m 12.404316,106.04634 c 2.875581,-2.87558 2.646341,-4.57796 4.878813,-4.58842 4.949333,-0.0232 7.99404,7.15359 10.911048,10.0706 2.917008,2.91701 10.169665,5.96266 10.070598,10.91105 -0.04467,2.231 -1.858033,1.85803 -4.733614,4.73362 -5.75116,5.75115 -15.142821,5.68401 -20.976837,-0.14998 -5.8340187,-5.83401 -5.9011714,-15.22567 -0.15,-20.97683 z"
       style="fill:#ffffff;fill-opacity:1;stroke-width:1.32292;stroke-linecap:round;stroke-linejoin:round"
       id="path860-3" />
    <rect
       ry="2.9245474"
       y="-60.862263"
       x="-119.71507"
       height="5.8490949"
       width="41.9109"
       id="rect863-6"
       style="fill:#ffffff;fill-opacity:1;stroke-width:1.32292;stroke-linecap:round;stroke-linejoin:round"
       transform="rotate(-135)" />
    <path
       sodipodi:nodetypes="asssssa"
       d="m -1.6884368,141.35564 c -1.1499465,-1.14994 -0.2442294,-2.9677 1.44726989,-4.65921 L 14.735747,121.71952 c 1.6915,-1.6915 3.769496,-2.33697 4.659201,-1.44727 0.889706,0.88971 0.244228,2.9677 -1.447269,4.6592 L 2.9707622,139.90837 c -1.6914973,1.69149 -3.50925446,2.59722 -4.659199,1.44727 z"
       style="fill:#ffffff;fill-opacity:1;stroke-width:1.32292;stroke-linecap:round;stroke-linejoin:round"
       id="rect871-7" />
    <path
       id="path898"
       style="fill:#ffffff;fill-opacity:1;stroke-width:1.32292;stroke-linecap:round;stroke-linejoin:round"
       d="m 87.177466,113.79087 c 2.844555,-2.84455 2.617786,-4.52855 4.826168,-4.5389 4.895928,-0.0229 7.907784,7.0764 10.793316,9.96193 2.88553,2.88553 10.05993,5.89832 9.96193,10.79333 -0.0442,2.20691 -1.83798,1.83797 -4.68254,4.68252 -5.6891,5.68911 -14.979419,5.62268 -20.750485,-0.14837 C 81.554788,128.77032 81.48836,119.48 87.177474,113.79089 Z"
       sodipodi:nodetypes="sasassss" />
    <rect
       transform="rotate(-135)"
       style="fill:#ffffff;fill-opacity:1;stroke-width:1.32292;stroke-linecap:round;stroke-linejoin:round"
       id="rect900"
       width="41.458664"
       height="5.7859807"
       x="-177.67589"
       y="-13.523632"
       ry="2.8929904" />
    <path
       id="path902"
       style="fill:#ffffff;fill-opacity:1;stroke-width:1.32292;stroke-linecap:round;stroke-linejoin:round"
       d="m 80.582271,141.37368 c -1.137538,-1.13754 -0.716025,-2.46125 0.367901,-3.54517 l 9.597323,-9.59733 c 1.083926,-1.08392 2.665069,-1.248 3.545174,-0.3679 0.880105,0.88011 0.716023,2.46125 -0.367903,3.54519 l -9.597323,9.59731 c -1.083924,1.08393 -2.407636,1.50543 -3.545172,0.3679 z"
       sodipodi:nodetypes="asssssa" />
    <path
       sodipodi:nodetypes="sasassss"
       d="m 140.3708,102.44051 c -2.84455,2.84455 -2.6178,4.52855 -4.82618,4.53889 -4.89593,0.0229 -7.90777,-7.076396 -10.7933,-9.961918 -2.88554,-2.885539 -10.05993,-5.898317 -9.96193,-10.793318 0.0442,-2.206926 1.83798,-1.837984 4.68254,-4.682536 5.68911,-5.689104 14.97943,-5.622684 20.75049,0.148381 5.77106,5.771075 5.83749,15.061398 0.14836,20.750501 z"
       style="fill:#ffffff;fill-opacity:1;stroke-width:1.32292;stroke-linecap:round;stroke-linejoin:round"
       id="path898-5" />
    <rect
       ry="2.8929904"
       y="-21.525883"
       x="136.1237"
       height="5.7859807"
       width="41.45866"
       id="rect900-3"
       style="fill:#ffffff;fill-opacity:1;stroke-width:1.32292;stroke-linecap:round;stroke-linejoin:round"
       transform="rotate(45)" />
    <path
       sodipodi:nodetypes="asssssa"
       d="m 146.96602,74.857698 c 1.13751,1.137526 0.71601,2.461238 -0.36792,3.545164 l -9.59734,9.597329 c -1.08391,1.083926 -2.66505,1.24801 -3.54516,0.367909 -0.88012,-0.880115 -0.71602,-2.461252 0.3679,-3.545178 l 9.59733,-9.597327 c 1.08394,-1.083928 2.40763,-1.505437 3.54519,-0.367897 z"
       style="fill:#ffffff;fill-opacity:1;stroke-width:1.32292;stroke-linecap:round;stroke-linejoin:round"
       id="path902-5" />
    <path
       id="path931"
       style="fill:#ffffff;fill-opacity:1;stroke-width:1.32292;stroke-linecap:round;stroke-linejoin:round"
       d="m 118.69515,91.141879 c 1.13753,1.137526 0.71602,2.461239 -0.36791,3.545164 l -9.59732,9.597327 c -1.08393,1.08393 -2.66507,1.24801 -3.54517,0.36791 -0.88011,-0.88011 -0.71603,-2.46125 0.3679,-3.54518 l 9.59733,-9.597324 c 1.08392,-1.083926 2.40763,-1.505437 3.54517,-0.367897 z"
       sodipodi:nodetypes="asssssa" />
    <path
       sodipodi:nodetypes="asssssa"
       d="m 130.68183,103.12856 c 1.13753,1.13752 0.71602,2.46124 -0.3679,3.54516 l -9.59733,9.59733 c -1.08393,1.08393 -2.66507,1.24801 -3.54517,0.36791 -0.88012,-0.88011 -0.71603,-2.46125 0.3679,-3.54518 l 9.59733,-9.59732 c 1.08392,-1.08393 2.40764,-1.50544 3.54517,-0.3679 z"
       style="fill:#ffffff;fill-opacity:1;stroke-width:1.32292;stroke-linecap:round;stroke-linejoin:round"
       id="path933" />
  </g>
</svg>
