<?xml version="1.0" encoding="UTF-8" standalone="no"?>
<svg
   xmlns:dc="http://purl.org/dc/elements/1.1/"
   xmlns:cc="http://creativecommons.org/ns#"
   xmlns:rdf="http://www.w3.org/1999/02/22-rdf-syntax-ns#"
   xmlns:svg="http://www.w3.org/2000/svg"
   xmlns="http://www.w3.org/2000/svg"
   xmlns:sodipodi="http://sodipodi.sourceforge.net/DTD/sodipodi-0.dtd"
   xmlns:inkscape="http://www.inkscape.org/namespaces/inkscape"
   sodipodi:docname="logo.svg"
   inkscape:version="1.0 (4035a4fb49, 2020-05-01)"
   id="svg8"
   version="1.1"
   viewBox="0 0 1047.6965 1047.6965"
   height="3959.7979"
   width="3959.7979">
  <defs
     id="defs2">
    <inkscape:path-effect
       bendpath-nodetypes="cc"
       hide_knot="false"
       vertical="false"
       scale_y_rel="false"
       prop_scale="1"
       bendpath="m -317.49991,42.345279 c 259.410473,-105.987591 529.79038,-165.355069 853.04619,0"
       lpeversion="1"
       is_visible="true"
       id="path-effect851"
       effect="bend_path" />
    <clipPath
       id="clipPath1695"
       clipPathUnits="userSpaceOnUse">
      <g
         inkscape:label="Clip"
         id="use1697">
        <circle
           r="158.22356"
           cy="-1441.1173"
           cx="-1667.7617"
           id="circle1731"
           style="fill:#f0f3bd;fill-opacity:1;stroke:none;stroke-width:39.6875;stroke-linecap:round;stroke-linejoin:round;stroke-miterlimit:4;stroke-dasharray:none;stroke-opacity:1" />
        <circle
           r="85.526245"
           cy="-923.68347"
           cx="-1109.703"
           id="circle1733"
           style="fill:#f0f3bd;fill-opacity:1;stroke:none;stroke-width:39.6875;stroke-linecap:round;stroke-linejoin:round;stroke-miterlimit:4;stroke-dasharray:none;stroke-opacity:1" />
        <circle
           r="38.486809"
           cy="-1090.4596"
           cx="-1342.7621"
           id="circle1735"
           style="fill:#f0f3bd;fill-opacity:1;stroke:none;stroke-width:39.6875;stroke-linecap:round;stroke-linejoin:round;stroke-miterlimit:4;stroke-dasharray:none;stroke-opacity:1" />
        <circle
           r="100.49334"
           cy="-726.97308"
           cx="-1680.5908"
           id="circle1737"
           style="fill:#f0f3bd;fill-opacity:1;stroke:none;stroke-width:39.6875;stroke-linecap:round;stroke-linejoin:round;stroke-miterlimit:4;stroke-dasharray:none;stroke-opacity:1" />
        <circle
           r="62.006531"
           cy="-842.43347"
           cx="-1428.2883"
           id="circle1739"
           style="fill:#f0f3bd;fill-opacity:1;stroke:none;stroke-width:39.6875;stroke-linecap:round;stroke-linejoin:round;stroke-miterlimit:4;stroke-dasharray:none;stroke-opacity:1" />
        <circle
           r="130.42752"
           cy="-761.18365"
           cx="-799.67041"
           id="circle1741"
           style="fill:#f0f3bd;fill-opacity:1;stroke:none;stroke-width:39.6875;stroke-linecap:round;stroke-linejoin:round;stroke-miterlimit:4;stroke-dasharray:none;stroke-opacity:1" />
        <circle
           r="62.006531"
           cy="-1257.2357"
           cx="-1101.1505"
           id="circle1743"
           style="fill:#f0f3bd;fill-opacity:1;stroke:none;stroke-width:39.6875;stroke-linecap:round;stroke-linejoin:round;stroke-miterlimit:4;stroke-dasharray:none;stroke-opacity:1" />
        <circle
           r="32.072342"
           cy="-1122.532"
           cx="-1577.9594"
           id="circle1745"
           style="fill:#f0f3bd;fill-opacity:1;stroke:none;stroke-width:39.6875;stroke-linecap:round;stroke-linejoin:round;stroke-miterlimit:4;stroke-dasharray:none;stroke-opacity:1" />
        <circle
           r="47.039436"
           cy="-1368.4199"
           cx="-1402.6305"
           id="circle1747"
           style="fill:#f0f3bd;fill-opacity:1;stroke:none;stroke-width:39.6875;stroke-linecap:round;stroke-linejoin:round;stroke-miterlimit:4;stroke-dasharray:none;stroke-opacity:1" />
        <circle
           r="62.006531"
           cy="-1066.9399"
           cx="-964.30841"
           id="circle1749"
           style="fill:#f0f3bd;fill-opacity:1;stroke:none;stroke-width:39.6875;stroke-linecap:round;stroke-linejoin:round;stroke-miterlimit:4;stroke-dasharray:none;stroke-opacity:1" />
        <circle
           r="47.039436"
           cy="-1443.2554"
           cx="-1032.7294"
           id="circle1751"
           style="fill:#f0f3bd;fill-opacity:1;stroke:none;stroke-width:39.6875;stroke-linecap:round;stroke-linejoin:round;stroke-miterlimit:4;stroke-dasharray:none;stroke-opacity:1" />
        <circle
           r="164.63803"
           cy="-1227.3016"
           cx="-690.62445"
           id="circle1753"
           style="fill:#f0f3bd;fill-opacity:1;stroke:none;stroke-width:39.6875;stroke-linecap:round;stroke-linejoin:round;stroke-miterlimit:4;stroke-dasharray:none;stroke-opacity:1" />
        <circle
           r="175.32881"
           cy="-528.12445"
           cx="-1152.4662"
           id="circle1755"
           style="fill:#f0f3bd;fill-opacity:1;stroke:none;stroke-width:39.6875;stroke-linecap:round;stroke-linejoin:round;stroke-miterlimit:4;stroke-dasharray:none;stroke-opacity:1" />
      </g>
    </clipPath>
  </defs>
  <sodipodi:namedview
     inkscape:snap-global="true"
     showborder="false"
     inkscape:window-maximized="0"
     inkscape:window-y="27"
     inkscape:window-x="1720"
     inkscape:window-height="1376"
     inkscape:window-width="1720"
     fit-margin-bottom="0"
     fit-margin-right="0"
     fit-margin-left="0"
     lock-margins="true"
     fit-margin-top="0"
     units="px"
     showgrid="false"
     inkscape:document-rotation="0"
     inkscape:current-layer="layer1"
     inkscape:document-units="px"
     inkscape:cy="1875.7697"
     inkscape:cx="3539.5629"
     inkscape:zoom="0.16"
     inkscape:pageshadow="2"
     inkscape:pageopacity="0.0"
     borderopacity="1.0"
     bordercolor="#666666"
     pagecolor="#ffffff"
     id="base" />
  <metadata
     id="metadata5">
    <rdf:RDF>
      <cc:Work
         rdf:about="">
        <dc:format>image/svg+xml</dc:format>
        <dc:type
           rdf:resource="http://purl.org/dc/dcmitype/StillImage" />
        <dc:title></dc:title>
      </cc:Work>
    </rdf:RDF>
  </metadata>
  <g
     transform="translate(1758.6334,1538.8042)"
     id="layer1"
     inkscape:groupmode="layer"
     inkscape:label="Layer 1">
    <rect
       transform="scale(-1)"
       y="491.10767"
       x="710.93689"
       height="1047.6965"
       width="1047.6965"
       id="rect1759"
       style="fill:#457b9d;fill-opacity:1;stroke:none;stroke-width:39.6875;stroke-linecap:round;stroke-linejoin:round;stroke-miterlimit:4;stroke-dasharray:none;stroke-opacity:1" />
    <g
       transform="translate(-1379.774,-1016.8527)"
       style="fill:#e63946;fill-opacity:1"
       id="g1408">
      <path
         sodipodi:nodetypes="ccccccccccccccccccccscccccsssscsscccccccccssscscscccscccccccccccccccccccccccscccccccccccccccsccccccccccccccccccccccccccccccccccccccccccccccccccccccccccccccccccccccccccccscccccccccccccccccccccccccccccccccccccccccccccsccccccccccscccccccccccsccccccccccccccsscscccccscccsscsssscsccsccccssccscccscccccccccccccccccccccscccsscccccccccccccccccccccsscccscsssccssccsccscsccccccccscssccsscssssccccccccccccccccccccccccccsscccccccccccccccccc"
         transform="matrix(0.26458333,0,0,0.26458333,42.763125,264.06229)"
         d="m 415.60938,-1498.6777 0.0469,66.2265 -1.83984,0.049 0.0234,34.7617 c -19.33817,-19.0649 -38.43775,-38.2593 -58.44336,-56.959 l -0.008,-0.01 c -1.47704,-1.3809 -2.95774,-2.7641 -4.4375,-4.1426 l -21.22851,-19.7754 -418.671879,25.4312 10.267578,72.4083 c 1.321539,9.3181 2.635932,18.6368 3.957032,27.955 -23.197176,-17.5204 -46.185231,-35.1977 -69.898441,-52.3164 l -23.67383,-17.0957 -28.99609,3.418 c -43.60851,5.1352 -87.10577,10.9484 -130.46875,17.4062 l -80.22656,11.9512 13.60156,59.1309 c -28.52904,-11.3217 -58.9031,-18.6155 -90.34375,-21.9043 -11.56412,-1.358 -23.16874,-2.1336 -34.76953,-2.2656 h -0.0352 c -31.82443,-0.3689 -63.59278,3.9422 -94.42968,12.6894 -42.25588,11.9863 -81.59982,32.0586 -116.02735,59.1816 l -0.14062,0.1094 -0.14063,0.1113 c -32.99112,26.2509 -60.69904,57.5715 -81.80664,92.879 -5.96712,9.8136 -11.33421,19.9352 -16.14062,30.2968 -23.04971,-14.9134 -48.4522,-26.2348 -75.47657,-33.1758 -25.16345,-6.4629 -51.06695,-9.368 -77.40625,-9.0351 -43.89885,0.5548 -89.01425,10.0904 -133.97265,27.084 -41.4381,15.663 -78.5318,39.985 -107.5176,72.0976 -26.9921,29.904 -47.6128,64.7784 -60.6718,102.56448 -13.0899,37.05709 -18.8547,76.2422 -17.3985,115.56446 1.4496,39.14404 9.7965,77.44967 24.4922,113.41406 15.577,38.12101 38.7798,72.3233 68.1426,100.2832 l 0.3477,0.33203 0.3535,0.32618 c 28.4245,26.37838 60.9962,47.40378 96.3711,62.21484 l 0.3379,0.14648 0.3476,0.14063 c 1.959,0.79753 3.9285,1.56741 5.9004,2.32617 18.237,12.67898 37.7119,23.40924 58.1602,31.9707 l 0.3398,0.14649 0.3457,0.14062 c 34.551,14.06597 71.22998,21.9066 108.49998,23.37891 38.68422,1.52814 77.30241,-4.78439 113.57812,-18.41016 28.16032,-10.57746 54.54171,-25.5661 78.39454,-44.21875 23.98877,-18.60421 45.14449,-40.40464 62.74609,-64.90039 13.25312,-18.44411 24.19674,-38.42291 32.51758,-59.46679 5.45583,2.97929 10.98768,5.81928 16.60742,8.48632 34.13129,16.19823 70.55874,26.57254 108.00391,30.96094 l 0.19335,0.0215 0.19922,0.0215 c 39.00312,4.36351 78.25243,1.35761 115.63672,-9.23437 28.49432,-8.07322 55.62516,-20.12689 80.56641,-35.89063 l 0.008,-0.008 h 0.006 c 8.37649,-5.29608 16.49917,-11.00482 24.36914,-17.0957 16.11844,-12.37319 31.06081,-25.9792 44.66992,-40.71485 l 4.49024,-0.97851 10.75195,47.22265 72.60156,-15.82812 c 41.89457,-9.13025 83.830702,-17.50504 125.7793,-25.08203 l 73.759766,-13.32422 39.332031,-5.3086 34.679683,-4.63672 c 35.57949,-4.75638 71.14804,-8.88817 106.68946,-12.35546 l 10.8457,-1.05664 11.5957,-1.04102 c 35.15033,-3.15317 70.26971,-5.65201 105.34766,-7.46289 h 0.043 l 0.0449,-0.008 c 6.71633,-0.35471 13.4334,-0.68305 20.15234,-0.98828 l 74.92579,-3.4043 72.32812,0.67969 c 35.46739,0.29688 70.93168,1.28519 106.35156,2.96093 l 24.09571,1.13868 23.41406,1.51757 c 99.99243,6.48057 199.55964,18.47784 298.03516,35.98828 l 51.09961,9.08594 c 6.2535,6.46404 12.4665,12.95075 18.6289,19.45899 l 51.0547,53.91796 54.4277,-50.51562 c 15.9373,-14.79273 32.3015,-29.3299 48.6973,-43.84766 7.9817,21.31101 15.9032,42.62788 23.3633,63.98633 l 23.3945,66.98242 68.1855,-19.65039 c 9.4047,-2.71068 18.8494,-5.37201 28.3301,-7.98828 l 39.6875,13.39258 429.5742,168.38086 57.6817,-33.67578 29.1797,-60.53906 c 29.5725,-61.34889 59.192,-122.67744 88.8203,-184 3.3561,1.46636 6.7081,2.94139 10.0468,4.44921 l 71.168,32.14063 68.9473,-44.67383 29.2402,-72.41015 c 15.0408,-37.24232 29.9906,-74.52875 44.8516,-111.85743 l 26.2949,-66.045 -728.2168,-284.4609 -44.1582,-46.4102 -52.7441,36.3633 c -22.9879,15.8473 -45.6667,31.9525 -68.1485,48.2188 -10.646,-23.1951 -21.4771,-46.3722 -32.7246,-69.4942 l -28.0957,-57.748 -61.3808,18.8613 c -14.2566,4.3803 -28.4574,8.8479 -42.5997,13.4043 l -0.016,0.01 -0.023,0.01 c -14.2843,4.6115 -28.4939,9.3215 -42.6387,14.1153 l 4.918,-56.3926 z m 164.4375,138.2304 c 1.58181,0 3.16421,0.016 4.74609,0.022 l 0.24609,16.1328 c 1.93506,127.0478 2.81173,254.0732 2.63282,381.06253 -26.89573,-0.96545 -53.80746,-1.56962 -80.72266,-1.79492 -0.85964,-1.05183 -1.72834,-2.09932 -2.58984,-3.15039 l -0.20704,49.55469 c -7.36137,-9.00386 -14.80098,-17.97659 -22.30468,-26.92188 l 15.04101,-31.7207 c -49.2065,-59.53793 -101.40806,-117.84673 -156.53515,-174.69723 l 8.6289,189.86129 c -7.20782,0.32744 -14.41404,0.68197 -21.61914,1.0625 -18.63315,0.96193 -37.27111,2.10566 -55.91016,3.42383 l -37.20898,-380.97852 c 23.94882,-0.2216 47.90571,-0.2043 71.86719,0.076 1.38871,1.2936 2.77642,2.5893 4.16211,3.8847 62.95646,58.8467 122.55846,119.5325 178.71094,181.7715 -0.008,-19.7226 -0.024,-39.4453 -0.0332,-59.1679 0.60851,0.6732 1.22235,1.3439 1.83008,2.0175 -0.0183,-49.7922 -0.0508,-99.5846 -0.082,-149.3769 29.76353,-0.762 59.54905,-1.1179 89.34766,-1.0606 z m -83.15821,383.18363 c 2.50049,3.02549 4.9857,6.05607 7.47071,9.08789 l 0.10546,-25.06445 z m 217.33594,-366.69143 c 96.89303,3.4294 193.81513,11.2313 290.40429,23.4551 l 8.4141,16.6172 -49.46878,17.6484 8.57226,16.9297 c -55.64815,-7.5281 -111.45777,-13.6067 -167.35937,-18.2305 -0.10583,16.8958 -0.23638,33.7905 -0.39063,50.6836 61.46729,2.0178 122.99757,5.8161 184.49414,11.418 -0.66994,7.003 -1.35745,14.0036 -2.0332,21.0059 -65.50107,-9.6656 -131.26324,-17.2256 -197.15625,-22.6758 -0.10129,16.1809 -0.22527,32.3607 -0.37305,48.539 58.86649,1.9325 117.79493,5.5707 176.68946,10.9356 -1.79303,18.7424 -3.60894,37.4819 -5.44531,56.2187 -53.36882,-4.7237 -106.77227,-8.0526 -160.13672,-9.9746 -0.79595,17.9665 -1.61067,35.9309 -2.44336,53.8946 -4.15251,-0.1672 -8.30497,-0.3446 -12.45703,-0.4942 -0.76721,17.3179 -1.55259,34.636 -2.35547,51.9512 55.51526,2.9001 111.0215,7.4058 166.42383,13.5273 l -42.66993,41.96098 11.875,11.38672 -14.82421,14.57617 c -69.02653,-10.07993 -138.44727,-17.66794 -208.07422,-22.75391 z m -614.10156,4.2715 c 13.36622,131.3398 26.59225,262.6939 39.64843,394.06446 l 0.0195,0.1875 c -21.20683,2.41312 -42.411051,5.03137 -63.609379,7.86523 C 15.151992,-993.3058 -48.820544,-1047.3899 -115.34961,-1099.7832 l 33.687501,187.06836 c -38.963501,7.0378 -77.886381,14.72261 -116.750001,23.00976 -0.27931,-1.22525 -0.55856,-2.45053 -0.83789,-3.67578 7.27904,-17.53914 13.03799,-35.78939 17.18555,-54.57031 9.24198,-40.12917 9.5305,-82.36973 0.35351,-123.49223 -8.20244,-36.7555 -24.03196,-71.758 -46.96484,-102.0527 -10.26351,-23.8799 -23.93243,-46.3368 -40.85938,-66.4766 -3.94001,-4.7754 -8.03778,-9.4102 -12.25586,-13.9296 -0.85269,-3.7083 -1.70373,-7.4169 -2.55664,-11.125 40.81969,-6.0791 81.74931,-11.5508 122.76758,-16.3809 71.048906,51.2904 139.611529,104.4366 205.257814,159.4004 -9.637995,-68.1327 -19.288787,-136.2632 -28.951172,-204.3926 28.371303,-4.7581 56.839612,-9.1852 85.396488,-13.2832 z m 157.13086,11.084 c -1.76931,4e-4 -3.53929,0.026 -5.3086,0.029 3.249,31.9782 6.43332,63.9633 9.66407,95.9433 z m 934.85159,43.5723 c 23.6425,48.6031 45.8542,97.3886 66.6933,146.3164 43.9325,-33.616 89.0503,-66.3614 135.2735,-98.2266 18.8924,19.8533 37.4178,39.8585 55.6054,59.998 -6.8677,19.6374 -13.7369,39.2742 -20.5976,58.9141 -25.3902,17.924 -50.4445,36.11 -75.1426,54.5625 2.3242,5.9207 4.6233,11.8437 6.9102,17.7676 -15.2079,10.9614 -30.2891,22.0205 -45.2305,33.1836 13.8956,35.39741 27.0867,70.85773 39.6055,106.36131 -10.1189,29.08941 -20.2255,58.18292 -30.3282,87.27734 -4.8781,1.37718 -9.7489,2.76512 -14.6093,4.16602 -20.0968,-57.53739 -41.9493,-114.94109 -65.6524,-172.14258 -47.1308,38.81731 -92.7665,78.66925 -136.8008,119.54102 -6.6593,-7.03303 -13.3685,-14.04207 -20.1269,-21.02735 -7.0892,-7.35305 -14.2434,-14.6774 -21.4492,-21.97656 l 16.1211,-90.7051 c 4.8207,-4.3502 9.6571,-8.6908 14.5156,-13.0176 18.5765,-16.5431 37.4227,-32.9092 56.5312,-49.0976 -2.7389,-6.4005 -5.5076,-12.7983 -8.2949,-19.1934 13.031,-11.4111 26.1735,-22.7472 39.4492,-33.9941 -10.4544,-24.4304 -21.2445,-48.823 -32.3789,-73.1738 -10.9728,-23.9759 -22.2838,-47.9027 -33.9238,-71.7715 11.2778,-3.7948 22.5891,-7.545 33.9629,-11.2168 13.2318,-4.2631 26.5224,-8.4447 39.8672,-12.5449 z m -1413.27152,20.8066 c -1.3639,0.1748 -2.7261,0.361 -4.08984,0.5371 6.56585,28.5984 13.08892,57.2075 19.64258,85.8086 z m 559.48829,2.4277 23.74609,24.4922 c -7.91157,-8.1696 -15.71316,-16.381 -23.74609,-24.4922 z m -1021.76368,38.0625 c -3.49615,2.8039 -6.93565,5.6623 -10.30664,8.584 3.30468,-2.8817 6.69109,-5.7104 10.16993,-8.4785 0.0453,-0.036 0.0914,-0.07 0.13671,-0.1055 z m 199.64063,4.3946 c 1.46901,-0.01 2.93813,-0.01 4.4082,0.012 8.70508,0.098 17.42775,0.6674 26.16016,1.707 32.67516,3.3572 62.49806,12.1097 89.29883,26.086 0.53931,0.2749 1.06736,0.563 1.60351,0.8417 18.2204,79.4328 36.39129,158.8745 54.51758,238.32817 -4.18764,8.31718 -8.82688,16.40335 -13.92773,24.25586 -16.90303,25.46691 -38.0611,47.87071 -63.53125,67.39844 -6.33068,4.90442 -12.81859,9.45823 -19.47071,13.66406 -19.72203,12.46502 -40.88416,21.88813 -63.63476,28.33399 -29.24561,8.28607 -59.37029,10.6625 -90.69336,7.1582 -25.33946,-2.96968 -49.6587,-9.14393 -73.01172,-18.58203 -0.19375,-9.17478 -0.92882,-18.34795 -2.25781,-27.45703 l -9.47071,-64.91602 -44.67187,0.51172 -1.58985,-10.89648 40.01758,-22.01563 -40.3125,-66.83395 c -7.5913,-12.5858 -16.18305,-24.4799 -25.65625,-35.5547 4.96492,-13.4401 11.20737,-26.3751 18.77149,-38.7813 15.69437,-26.3184 36.21539,-49.6502 61.56445,-69.8203 25.75827,-20.2931 54.60251,-35.014 86.26758,-43.9961 21.67125,-6.1472 43.58393,-9.3001 65.61914,-9.4433 z m 354.0293,12.7304 14.20312,11.1836 c -4.75506,-3.7168 -9.42139,-7.4835 -14.20312,-11.1836 z m -319.26758,11.1973 c 0.43228,0.2221 0.8545,0.4696 1.28515,0.6953 0.0612,0.033 0.13026,0.047 0.19141,0.08 z m -197.72266,19.2598 c -0.10091,0.083 -0.18034,0.1904 -0.28125,0.2734 -0.1799,0.1507 -0.38117,0.2764 -0.56055,0.4277 z m 234.06445,6.1933 c 6.30114,5.6223 12.49241,11.3856 17.87891,17.834 15.23365,18.2369 26.66154,40.193 32.6582,63.1973 3.73013,14.3095 5.0552,29.2562 4.58399,44.0468 1.9211,-15.297 2.03017,-30.4526 -1.60156,-46.7265 -4.66401,-20.8996 -12.58356,-36.9595 -25.26954,-52.0059 l -0.30273,-0.3535 -0.29492,-0.3613 c -8.26103,-10.0487 -17.59929,-18.2384 -27.65235,-25.6309 z m 2021.60747,21.2266 -0.2325,0.7793 c -2.8597,9.5881 -5.7428,19.1681 -8.6152,28.7519 l -13.1641,-15.1289 z m -2143.19145,6.9316 c -9.40885,-0.028 -18.78206,1.2841 -28.0957,3.9356 -13.54753,3.8568 -25.85411,10.4446 -36.85938,19.7324 -10.70075,8.7657 -19.49648,19.1857 -26.375,31.2266 -6.58,11.5183 -10.79904,23.8691 -12.68359,37.0371 -1.88455,13.1677 -0.78551,26.3003 3.23633,39.4023 3.7782,12.30826 10.4033,22.8711 19.8164,31.72267 7.9926,7.51583 16.88641,13.81759 26.65821,18.94531 3.70363,10.95185 9.83114,20.41893 18.34179,28.42187 9.01573,8.47792 19.21507,15.35701 30.59375,20.66602 11.26453,4.92806 23.2055,8.02194 35.8418,9.29883 13.02646,1.16301 25.35884,0.0922 37.04883,-3.22657 11.68995,-3.31873 22.34985,-8.77504 32.02929,-16.39257 10.06954,-7.72456 18.3432,-16.76599 24.83399,-27.1543 0.70879,-1.19538 1.39371,-2.3995 2.05273,-3.61133 5.2775,-9.70736 8.95828,-19.94784 11.02344,-30.73047 2.71923,-12.23176 2.55868,-24.31786 -0.55273,-36.25386 -3.11131,-11.9356 -8.72226,-22.8104 -16.89453,-32.5938 -5.89265,-7.0543 -12.68631,-13.1026 -20.35352,-18.1699 -0.0393,-0.1543 -0.0731,-0.3087 -0.11328,-0.4629 -3.24877,-12.4629 -9.10924,-23.8176 -17.64258,-34.0332 -7.6269,-9.1305 -16.672,-16.6774 -27.14844,-22.6152 -1.24407,-0.7055 -2.50864,-1.3889 -3.79297,-2.0489 -11.67273,-6.3294 -24.38636,-10.4129 -38.11523,-12.2265 -4.28991,-0.5668 -8.57286,-0.8565 -12.84961,-0.8692 z m 124.66211,0.1 c 0.44216,0.2273 0.87401,0.4779 1.31445,0.709 0.0496,0.027 0.10479,0.04 0.1543,0.066 z m -192.82227,18.8164 -0.84179,0.7012 c 0.12824,-0.1083 0.29337,-0.1713 0.42187,-0.2793 0.15319,-0.1262 0.26647,-0.2962 0.41992,-0.4219 z m 2201.58401,6.752 c -7.8475,26.1704 -15.7233,52.3316 -23.6602,78.4727 l -21.1269,69.60347 38.2754,12.91406 c -23.5941,60.1195 -47.1534,120.25227 -70.6817,180.39648 -9.1582,-3.39883 -18.329,-6.75348 -27.5097,-10.07031 l 31.9902,-7.73633 -24.2344,-76.63086 c -8.2083,-25.95042 -16.874,-51.88059 -25.8672,-77.79297 13.3306,-38.30886 26.6763,-76.61204 40.0332,-114.91214 4.3544,-2.8866 8.7131,-5.7702 13.0938,-8.6367 z m -2685.5078,11.209 c -25.5298,13.9805 -48.56,31.8119 -67.8789,53.2148 -26.1402,28.9601 -46.1337,62.76858 -58.7754,99.37502 -5.6888,16.12009 -9.9343,32.66203 -12.7696,49.43946 0.676,-24.76218 5.0826,-48.75366 13.3028,-71.95118 9.8317,-28.5675 25.0099,-54.292 45.5703,-77.0703 20.557,-22.7746 46.717,-40.2369 78.3594,-52.1973 0.7327,-0.2769 1.4602,-0.5388 2.1914,-0.8105 z m 2847.2168,6.9941 c 98.6035,36.3288 195.6126,76.6705 290.7441,120.584 -5.6929,14.29972 -11.4083,28.58846 -17.1289,42.875 -24.2635,-10.6307 -48.6287,-21.03232 -73.0918,-31.19531 -9.881,20.43112 -19.7472,40.86909 -29.623,61.30273 -11.4447,-4.88209 -22.9103,-9.71677 -34.4004,-14.49023 -40.5007,83.74363 -80.9439,167.51482 -121.3536,251.30273 -30.5217,-10.44462 -61.1094,-20.47959 -91.75,-30.07617 47.3603,-108.11387 94.7945,-216.1969 142.3008,-324.24805 -27.7705,-10.4558 -55.6584,-20.5896 -83.6504,-30.4043 5.9803,-15.2183 11.9689,-30.4336 17.9532,-45.6504 z m -977.67582,6.8906 -45.78125,43.709 c 0.0472,21.8444 0.0836,43.6849 0.0723,65.52737 14.26764,1.2761 28.50435,2.82251 42.75,4.3125 z m -270.08008,17.7168 c 9.82772,11.3886 19.63415,22.782 29.2461,34.2657 0.57101,0.011 1.14188,0.033 1.71289,0.045 z m -1428.23437,0.5157 c 17.64196,0.1394 34.58317,2.2952 50.77929,6.455 3.15235,0.8097 6.2536,1.6976 9.31055,2.6485 -2.03516,19.1298 -1.98954,38.3546 0.0117,57.3672 -20.171,11.33432 -40.26285,22.75951 -60.26172,34.28903 -5.9427,-6.25281 -12.97631,-11.0073 -21.10547,-14.25195 -8.12859,-3.24443 -16.94152,-5.12835 -26.42968,-5.64063 -9.22069,-1.05246 -18.70779,-0.88531 -28.44922,0.50391 -9.74138,1.38922 -19.12158,3.77433 -28.12888,7.14844 -13.9207,5.21465 -25.8486,12.61562 -35.7539,22.16992 -9.906,9.55488 -17.4738,20.2523 -22.707,32.07031 -4.8275,11.66161 -7.3442,23.78212 -7.5704,36.35352 -0.3768,12.18427 1.7657,23.61543 6.3926,34.29883 4.6273,10.68421 11.5131,20.04154 20.6309,28.08984 9.1181,8.04854 19.5667,14.24779 31.3398,18.61914 5.5364,1.76351 11.2173,3.12889 17.0313,4.13476 4.0401,6.76211 9.1657,12.88698 15.38081,18.37305 8.7323,7.70799 18.7387,13.64564 30.01367,17.83203 11.51509,3.66793 23.65394,5.6221 36.42969,5.875 13.01684,-0.2643 25.81546,-2.75345 38.43164,-7.46875 7.64651,-2.85788 15.40151,-6.5906 23.27344,-11.19531 8.11665,-5.11928 15.39654,-10.75703 21.8457,-16.92187 6.44901,-6.1647 11.4917,-12.64732 15.125,-19.45899 3.88309,-7.32483 5.52141,-14.88815 4.90039,-22.69726 13.80123,-0.44274 27.58515,-0.81955 41.35938,-1.16407 2.19287,2.43326 4.42248,4.83298 6.69922,7.18946 l 0.31836,0.33203 0.3164,0.32617 c 3.9777,4.01824 8.054,7.91704 12.20508,11.71875 -0.40688,1.46554 -0.83539,2.9285 -1.28516,4.39062 -6.54958,22.45028 -16.8304,43.38287 -30.81836,62.84961 -13.99026,19.46995 -30.6522,36.68011 -50.04492,51.69922 -19.00267,14.87784 -39.38921,26.40688 -61.27344,34.62696 -28.52579,10.71476 -57.78165,15.47554 -87.96484,14.2832 -25.49276,-1.00707 -50.09506,-5.6055 -73.84376,-13.8125 -6.6939,-5.04548 -13.1775,-10.46229 -19.4394,-16.27344 -20.8646,-19.86772 -37.01,-43.5655 -48.2969,-71.1875 -10.9857,-26.88496 -17.0886,-54.9102 -18.1699,-84.10937 -1.0813,-29.19762 3.1073,-57.30912 12.6719,-84.30078 9.4157,-27.35871 23.9501,-51.99409 43.6406,-73.80858 19.6872,-21.8109 44.7414,-38.534 75.0449,-49.9883 38.47765,-14.544 74.71049,-21.6314 108.39061,-21.3652 z m -43.64844,5.9804 c 0.6189,0.033 1.23987,0.2038 1.85938,0.2442 0.86521,0.086 1.73526,0.026 2.59961,0.125 z m 1025.603516,21.1856 c 11.345053,9.8766 22.676315,19.7615 33.845704,29.75 0.49434,-0.061 0.98807,-0.1092 1.48242,-0.1699 z m -965.898436,26.7383 c 0.61818,0.033 1.24044,0.2016 1.85937,0.2422 0.86533,0.086 1.73512,0.028 2.59961,0.1269 z m 538.58984,0.8554 c -0.0585,0.3058 -0.18401,0.595 -0.24414,0.9004 -0.089,0.4172 -0.11458,0.8537 -0.20703,1.2696 z m 37.33789,49.62894 c -0.0586,0.30572 -0.18397,0.59497 -0.24414,0.90039 -0.0889,0.41687 -0.11466,0.85396 -0.20703,1.26953 z m -669.75195,54.29883 c -7.21865,7.20761 -13.07895,15.0781 -17.58395,23.60156 0,-0.23279 0,-0.47124 0.016,-0.85547 l 0.014,-0.48828 0.01,-0.47852 c 0.055,-3.05903 0.6437,-5.32406 1.6679,-8.03906 1.1426,-2.41282 2.4661,-4.6544 5.6856,-7.75977 2.1812,-2.10391 4.72415,-3.93798 9.99413,-5.91211 0.0655,-0.0245 0.13358,-0.044 0.19922,-0.0684 z m 565.54883,5.11718 c -0.12131,0.0955 -0.26904,0.15679 -0.39063,0.25196 -0.12366,0.0953 -0.22376,0.22135 -0.34765,0.3164 z m -733.05078,12.99219 c 0,0.15175 0.041,0.3052 0.037,0.45703 0,0.1705 -0.056,0.33929 -0.059,0.50977 z m 772.06445,33.91211 c -0.11267,0.0887 -0.25035,0.14792 -0.36328,0.23633 -0.13323,0.1028 -0.24151,0.23745 -0.375,0.33984 z m -707.17185,9.85547 -0.02,0.9668 c 0,-0.17041 0.055,-0.33935 0.059,-0.50977 0,-0.15172 -0.043,-0.3054 -0.039,-0.45703 z"
         style="color:#000000;font-style:normal;font-variant:normal;font-weight:normal;font-stretch:normal;font-size:164.872px;line-height:1.25;font-family:Riffic;-inkscape-font-specification:Riffic;font-variant-ligatures:normal;font-variant-position:normal;font-variant-caps:normal;font-variant-numeric:normal;font-variant-alternates:normal;font-variant-east-asian:normal;font-feature-settings:normal;font-variation-settings:normal;text-indent:0;text-align:start;text-decoration:none;text-decoration-line:none;text-decoration-style:solid;text-decoration-color:#000000;letter-spacing:normal;word-spacing:normal;text-transform:none;writing-mode:lr-tb;direction:ltr;text-orientation:mixed;dominant-baseline:auto;baseline-shift:baseline;text-anchor:start;white-space:normal;shape-padding:0;shape-margin:0;inline-size:0;clip-rule:nonzero;display:inline;overflow:visible;visibility:visible;isolation:auto;mix-blend-mode:normal;color-interpolation:sRGB;color-interpolation-filters:linearRGB;solid-color:#000000;solid-opacity:1;vector-effect:none;fill:#e63946;fill-opacity:1;fill-rule:nonzero;stroke:none;stroke-width:150;stroke-linecap:butt;stroke-linejoin:miter;stroke-miterlimit:4;stroke-dasharray:none;stroke-dashoffset:0;stroke-opacity:1;color-rendering:auto;image-rendering:auto;shape-rendering:auto;text-rendering:auto;enable-background:accumulate;stop-color:#000000;stop-opacity:1"
         id="path1412" />
    </g>
    <path
       id="path1584"
       d="m -931.75833,-1066.1137 12.66483,-15.4883 2.28817,24.6918 z"
       style="font-variation-settings:normal;vector-effect:none;fill:#1d3557;fill-opacity:1;stroke:none;stroke-width:0.264583;stroke-linecap:butt;stroke-linejoin:miter;stroke-miterlimit:4;stroke-dasharray:none;stroke-dashoffset:0;stroke-opacity:1;stop-color:#000000" />
    <path
       id="path950"
       style="font-style:normal;font-variant:normal;font-weight:normal;font-stretch:normal;font-size:164.872px;line-height:1.25;font-family:Riffic;-inkscape-font-specification:Riffic;fill:#1d3557;fill-opacity:1;stroke:none;stroke-width:0.264583"
       d="m -1524.4876,-976.82102 c 0.865,5.92883 0.3998,11.75447 -1.3604,17.47673 -1.6596,5.68864 -4.2647,10.99247 -7.8091,15.92511 -3.545,4.93346 -7.7669,9.29438 -12.6808,13.10005 -4.815,3.76986 -9.9806,6.69132 -15.5258,8.77419 -7.2281,2.715 -14.6416,3.92132 -22.2896,3.6192 -7.6471,-0.30209 -14.9788,-1.87447 -22.0087,-4.73637 -6.9296,-2.90137 -13.2102,-6.94843 -18.8314,-12.16502 -5.5204,-5.25667 -9.7922,-11.52677 -12.7786,-18.83509 -2.9066,-7.11331 -4.5212,-14.52841 -4.8073,-22.25403 -0.2861,-7.7252 0.8218,-15.16304 3.3525,-22.30458 2.4912,-7.23867 6.3368,-13.75667 11.5466,-19.52847 5.2089,-5.7708 11.8376,-10.1955 19.8554,-13.2261 15.5132,-5.8638 29.6478,-7.1464 42.114,-3.9446 12.4841,3.2064 22.1385,10.605 29.0428,22.0517 -9.1568,5.0369 -18.2395,10.1589 -27.2552,15.35652 -1.5058,-1.58439 -3.2881,-2.78902 -5.3479,-3.61112 -2.0597,-0.8221 -4.2927,-1.2992 -6.6968,-1.429 -2.3365,-0.2667 -4.7404,-0.2244 -7.2088,0.1276 -2.4683,0.352 -4.8452,0.9561 -7.1275,1.8111 -3.5274,1.32131 -6.5497,3.1966 -9.0596,5.61755 -2.51,2.42109 -4.4276,5.13191 -5.7537,8.12645 -1.2232,2.95491 -1.8609,6.02621 -1.9182,9.21165 -0.096,3.08736 0.4472,5.98388 1.6197,8.69093 1.1724,2.70725 2.9172,5.07799 5.2276,7.11734 2.3104,2.0394 4.958,3.61043 7.9412,4.71808 3.0467,0.97047 6.2585,1.48737 9.6388,1.55428 3.444,-0.0699 6.8304,-0.7286 10.1684,-1.97619 2.0232,-0.75615 4.0746,-1.74353 6.1573,-2.96186 2.1476,-1.35447 4.0738,-2.84606 5.7802,-4.47718 1.7063,-1.63107 3.0404,-3.34623 4.0017,-5.14848 1.0274,-1.93803 1.4611,-3.93919 1.2968,-6.00535 10.2682,-0.3294 20.5096,-0.55794 30.7164,-0.67504 z" />
    <path
       id="path952"
       style="font-style:normal;font-variant:normal;font-weight:normal;font-stretch:normal;font-size:164.872px;line-height:1.25;font-family:Riffic;-inkscape-font-specification:Riffic;fill:#1d3557;fill-opacity:1;stroke:none;stroke-width:0.264583"
       d="m -1404.4602,-1031.946 c 1.8116,8.1179 1.7475,16.1161 -0.078,23.9828 -1.721,7.8444 -4.7283,15.03233 -8.9849,21.58501 -4.283,6.45302 -9.644,12.12983 -16.0978,17.07793 -1.6041,1.24272 -3.2483,2.39663 -4.9338,3.46233 -4.9974,3.15849 -10.3596,5.5459 -16.1243,7.17921 -7.4105,2.09959 -15.0438,2.70203 -22.9807,1.81409 -7.8355,-0.91829 -15.2863,-3.04399 -22.3766,-6.40895 -7.0891,-3.36439 -13.4522,-7.8657 -19.0725,-13.54329 -5.5171,-5.71042 -9.5985,-12.38818 -12.1737,-20.07298 -2.6084,-7.78395 -3.3915,-15.62715 -2.2685,-23.53895 1.1951,-8.0452 3.8686,-15.5136 8.0534,-22.3773 4.1525,-6.9634 9.5821,-13.1366 16.289,-18.4733 6.8152,-5.3692 14.447,-9.2638 22.8251,-11.6404 6.1161,-1.7349 12.3046,-2.5683 18.5279,-2.4954 2.3032,0.026 4.611,0.1764 6.9214,0.4514 8.6453,0.8883 16.5364,3.2041 23.6274,6.902 7.204,3.6724 13.3398,8.6241 18.4238,14.8082 5.1946,6.1611 8.6333,13.2708 10.4223,21.2876 z m -56.052,39.8121 c 3.0929,-0.87808 5.9133,-2.32178 8.4743,-4.33725 2.6642,-2.04379 4.8537,-4.43575 6.5711,-7.18435 0.1875,-0.3163 0.3685,-0.6347 0.5428,-0.9554 0,0 0,0 0,0 1.3964,-2.5684 2.3704,-5.2778 2.9169,-8.1307 0.7194,-3.2363 0.6768,-6.4341 -0.1464,-9.5922 -0.8232,-3.1579 -2.308,-6.0352 -4.4703,-8.6237 -1.9325,-2.3136 -4.2245,-4.2257 -6.8791,-5.7303 0,0 0,0 0,0 -0.3152,-0.1788 -0.6355,-0.3518 -0.961,-0.519 -2.9577,-1.6038 -6.1792,-2.6385 -9.6579,-3.098 -3.4784,-0.4595 -6.9424,-0.2002 -10.3751,0.7771 -3.4328,0.9772 -6.551,2.6464 -9.3396,4.9998 -2.7115,2.2212 -4.9402,4.8613 -6.6832,7.9123 -1.6673,2.9186 -2.7362,6.0482 -3.2137,9.3848 -0.4776,3.3366 -0.1992,6.6643 0.8199,9.9842 0.9573,3.1187 2.6359,5.7953 5.021,8.03821 2.3854,2.24311 5.0843,4.06351 8.0949,5.46819 2.9804,1.30388 6.1397,2.12211 9.4831,2.45996 3.4465,0.30771 6.7093,0.0244 9.8023,-0.85366 z" />
    <path
       id="path954"
       style="font-style:normal;font-variant:normal;font-weight:normal;font-stretch:normal;font-size:164.872px;line-height:1.25;font-family:Riffic;-inkscape-font-specification:Riffic;fill:#1d3557;fill-opacity:1;stroke:none;stroke-width:0.264583"
       d="m -1312.6936,-988.77552 c -15.4642,-14.12368 -31.6741,-27.82788 -48.5318,-41.10378 l 8.5357,47.4006 c -11.3417,2.0486 -22.6695,4.31311 -33.9769,6.77738 -8.4868,-37.27108 -17.0144,-74.53318 -25.5829,-111.78628 10.8002,-1.6084 21.6297,-3.056 32.4824,-4.334 18.7984,13.5706 36.9389,27.6322 54.3078,42.1747 -2.55,-18.0268 -5.1033,-36.0531 -7.6598,-54.079 12.5687,-2.1079 25.2077,-3.9756 37.9122,-5.5875 l 11.4441,117.18835 c -9.6455,0.94099 -19.2904,2.06078 -28.9308,3.34953 z" />
    <path
       id="path956"
       style="font-style:normal;font-variant:normal;font-weight:normal;font-stretch:normal;font-size:164.872px;line-height:1.25;font-family:Riffic;-inkscape-font-specification:Riffic;fill:#1d3557;fill-opacity:1;stroke:none;stroke-width:0.264583"
       d="m -1203.5421,-995.73318 c -13.2105,-16.16392 -27.2893,-31.97642 -42.2138,-47.36752 l 2.1867,48.1087 c -1.8264,0.083 -3.6525,0.17267 -5.4782,0.26909 -9.5384,0.49242 -19.0809,1.17141 -28.6236,2.02744 -3.7777,-38.01163 -7.6066,-76.01813 -11.4862,-114.01963 11.0371,-0.2705 22.0836,-0.3455 33.1334,-0.2161 0.3674,0.3422 0.7345,0.6848 1.1011,1.0275 16.6572,15.5699 32.4268,31.6267 47.2838,48.0941 -0.01,-18.2108 -0.016,-36.4216 -0.03,-54.6324 12.8577,-0.3364 25.7316,-0.3843 38.6097,-0.1423 l -5.5736,117.65541 c -9.629,-0.45555 -19.2679,-0.72359 -28.9091,-0.80429 z" />
    <path
       id="path958"
       style="font-style:normal;font-variant:normal;font-weight:normal;font-stretch:normal;font-size:164.872px;line-height:1.25;font-family:Riffic;-inkscape-font-specification:Riffic;fill:#1d3557;fill-opacity:1;stroke:none;stroke-width:0.264583"
       d="m -1129.7995,-1021.608 c 18.3121,0.9566 36.6203,2.5722 54.8765,4.8553 l -5.7464,32.33328 c -26.7874,-4.76322 -53.8631,-8.02363 -81.0475,-9.78547 0.1382,-38.17501 -0.084,-76.36261 -0.6654,-114.55771 31.4597,0.5849 62.9589,2.9085 94.3187,6.9963 -0.9035,10.3609 -1.8371,20.7181 -2.8007,31.0713 -18.9979,-2.9247 -38.0828,-5.1764 -57.2096,-6.7584 -0.027,4.2812 -0.06,8.5621 -0.099,12.8426 15.5751,0.5113 31.1664,1.4737 46.7489,2.8932 -0.934,9.7635 -1.8903,19.5241 -2.8688,29.2818 -14.9565,-1.4079 -29.926,-2.3785 -44.8836,-2.9172 -0.203,4.582 -0.4107,9.1637 -0.6232,13.745 z" />
    <path
       id="path960"
       style="font-style:normal;font-variant:normal;font-weight:normal;font-stretch:normal;font-size:164.872px;line-height:1.25;font-family:Riffic;-inkscape-font-specification:Riffic;fill:#1d3557;fill-opacity:1;stroke:none;stroke-width:0.264583"
       d="m -988.92534,-1020.6761 c 7.17178,18.2692 13.63891,36.60038 19.44632,54.9603 -10.30988,2.49242 -20.48373,5.18229 -30.50748,8.07142 -5.0923,-14.5793 -10.6294,-29.125 -16.6355,-43.61922 -11.9424,9.83588 -23.5062,19.93396 -34.6639,30.29038 -1.6874,-1.78209 -3.3873,-3.55819 -5.0998,-5.32818 -6.0104,-6.23411 -12.1868,-12.39269 -18.5255,-18.46959 9.088,-8.93691 18.4606,-17.71081 28.1148,-26.30831 4.915,-4.3771 9.9015,-8.7074 14.9573,-12.9905 -2.6491,-6.1904 -5.3834,-12.3713 -8.2047,-18.5415 -4.4957,-9.8232 -9.2129,-19.6131 -14.1498,-29.3626 7.269,-2.5929 14.6166,-5.0895 22.0411,-7.4864 3.5009,-1.1279 7.017,-2.2343 10.5478,-3.3191 6.2555,12.8596 12.1322,25.7678 17.6459,38.7132 11.62382,-8.8942 23.56157,-17.5583 35.79146,-25.9893 8.59344,9.0305 16.90805,18.1767 24.95496,27.4254 -15.70455,10.2763 -30.95727,20.9297 -45.71296,31.954 z" />
    <path
       id="path962"
       style="font-style:normal;font-variant:normal;font-weight:normal;font-stretch:normal;font-size:164.872px;line-height:1.25;font-family:Riffic;-inkscape-font-specification:Riffic;fill:#1d3557;fill-opacity:1;stroke:none;stroke-width:0.264583"
       d="m -970.1502,-955.95051 c 12.74958,-36.73698 25.54692,-73.45809 38.39187,-110.16319 11.76273,3.9712 23.43362,8.1678 35.0079,12.578 -14.25142,36.1972 -28.45782,72.41133 -42.61907,108.64243 -10.20485,-3.88757 -20.46668,-7.57725 -30.7807,-11.05724 z" />
    <path
       id="path964"
       style="font-style:normal;font-variant:normal;font-weight:normal;font-stretch:normal;font-size:164.872px;line-height:1.25;font-family:Riffic;-inkscape-font-specification:Riffic;fill:#1d3557;fill-opacity:1;stroke:none;stroke-width:0.264583"
       d="m -805.52771,-983.11487 c -9.76071,-4.40806 -19.58902,-8.67063 -29.48025,-12.77986 -12.67735,26.21308 -25.33786,52.43436 -37.98148,78.66383 -10.71466,-3.78549 -21.46404,-7.37128 -32.23922,-10.74605 12.00053,-27.39478 24.01956,-54.78161 36.05709,-82.16045 -10.60611,-3.9933 -21.27777,-7.8051 -32.00953,-11.4262 2.96044,-9.7506 5.8972,-19.5091 8.81016,-29.2756 33.42599,11.4658 66.19891,24.7089 98.17339,39.4686 -3.75396,9.4294 -7.53073,18.848 -11.33016,28.25573 z" />
    <path
       id="path1550"
       d="m -1538.0106,-988.36411 13.523,11.54309 -16.4981,1.17572 z"
       style="fill:#1d3557;fill-opacity:1;stroke:none;stroke-width:0.264583px;stroke-linecap:butt;stroke-linejoin:miter;stroke-opacity:1" />
    <path
       d="m -1538.0106,-988.36411 c 0.9032,6.19078 0.4174,12.2738 -1.4205,18.24889 -1.733,5.93997 -4.4532,11.47814 -8.1542,16.62871 -3.7016,5.15143 -8.1101,9.70502 -13.241,13.67883 -5.0278,3.93643 -10.4216,6.98696 -16.2118,9.16186 -7.5475,2.83495 -15.2885,4.09457 -23.2745,3.7791 -7.9849,-0.31544 -15.6405,-1.95729 -22.981,-4.94563 -7.2358,-3.02956 -13.7938,-7.25543 -19.6634,-12.70249 -5.7644,-5.48892 -10.2249,-12.03605 -13.3432,-19.66726 -3.035,-7.4276 -4.721,-15.17031 -5.0197,-23.23726 -0.2987,-8.06652 0.8582,-15.83294 3.5006,-23.29004 2.6013,-7.5585 6.6168,-14.3645 12.0568,-20.3912 5.439,-6.0258 12.3606,-10.646 20.7326,-13.8105 16.1986,-6.1229 30.9578,-7.4622 43.9747,-4.1189 13.0357,3.3481 23.1167,11.0735 30.326,23.026 -9.5614,5.2595 -19.0454,10.6077 -28.4594,16.035 -1.5723,-1.6544 -3.4333,-2.9123 -5.5842,-3.7707 -2.1507,-0.8585 -4.4823,-1.3566 -6.9927,-1.4921 -2.4397,-0.2785 -4.9498,-0.2343 -7.5272,0.1332 -2.5775,0.3676 -5.0593,0.9984 -7.4425,1.8911 -3.6832,1.3797 -6.839,3.3379 -9.4598,5.8658 -2.621,2.528 -4.6233,5.3586 -6.0079,8.48547 -1.2773,3.08546 -1.9432,6.29246 -2.003,9.61864 -0.1,3.22375 0.467,6.24826 1.6912,9.07491 1.2243,2.82686 3.0462,5.30234 5.4586,7.43179 2.4125,2.12951 5.1771,3.76995 8.292,4.92654 3.1814,1.01334 6.5351,1.55308 10.0647,1.62295 3.5962,-0.073 7.1322,-0.7608 10.6177,-2.06351 2.1125,-0.78955 4.2546,-1.82056 6.4294,-3.09271 2.2424,-1.41432 4.2538,-2.97181 6.0355,-4.67499 1.7817,-1.70314 3.1748,-3.49408 4.1786,-5.37596 1.0728,-2.02365 1.5256,-4.11323 1.354,-6.27068 10.7219,-0.34395 21.4158,-0.58258 32.0736,-0.70486 z"
       style="font-style:normal;font-variant:normal;font-weight:normal;font-stretch:normal;font-size:164.872px;line-height:1.25;font-family:Riffic;-inkscape-font-specification:Riffic;fill:#f1faee;fill-opacity:1;fill-rule:nonzero;stroke:none;stroke-width:0.264583;stroke-miterlimit:4;stroke-dasharray:none"
       id="path834" />
    <path
       d="m -1412.6802,-1045.9246 c 1.8916,8.4766 1.8247,16.8281 -0.081,25.0424 -1.7971,8.1909 -4.9373,15.6965 -9.3819,22.53867 -4.4722,6.73812 -10.0701,12.66575 -16.8091,17.83246 -1.6749,1.29763 -3.3917,2.50252 -5.1518,3.61531 -5.2181,3.29804 -10.8172,5.79093 -16.8366,7.4964 -7.7379,2.19235 -15.7085,2.82141 -23.9961,1.89423 -8.1817,-0.95886 -15.9616,-3.17847 -23.3652,-6.6921 -7.4023,-3.51304 -14.0465,-8.21322 -19.9151,-14.14166 -5.761,-5.96272 -10.0227,-12.93551 -12.7117,-20.95981 -2.7236,-8.1279 -3.5413,-16.3176 -2.3687,-24.579 1.2479,-8.4007 4.0396,-16.199 8.4093,-23.3659 4.3359,-7.2711 10.0054,-13.7171 17.0086,-19.2896 7.1163,-5.6064 15.0853,-9.6731 23.8335,-12.1546 6.3864,-1.8115 12.8483,-2.6818 19.3466,-2.6057 2.405,0.027 4.8147,0.1842 7.2272,0.4714 9.0273,0.9275 17.267,3.3457 24.6713,7.2069 7.5223,3.8347 13.9292,9.0051 19.2378,15.4625 5.4241,6.4332 9.0147,13.8571 10.8828,22.2281 z m -58.5286,41.5711 c 3.2297,-0.9169 6.1746,-2.4244 8.8488,-4.5289 2.782,-2.1341 5.0682,-4.6318 6.8614,-7.5018 0.1958,-0.3302 0.3848,-0.6628 0.5668,-0.9976 0,0 0,0 0,0 1.4581,-2.6818 2.4752,-5.5109 3.0457,-8.4899 0.7513,-3.3793 0.7068,-6.7184 -0.1528,-10.016 -0.8596,-3.2975 -2.41,-6.3019 -4.6678,-9.0048 -2.0179,-2.4157 -4.4111,-4.4124 -7.183,-5.9834 0,0 0,0 0,0 -0.3292,-0.1867 -0.6637,-0.3673 -1.0035,-0.542 -3.0884,-1.6746 -6.4522,-2.755 -10.0846,-3.2348 -3.6321,-0.4799 -7.2492,-0.209 -10.8335,0.8114 -3.5845,1.0204 -6.8405,2.7634 -9.7523,5.2207 -2.8312,2.3193 -5.1584,5.076 -6.9784,8.2619 -1.7409,3.0475 -2.8571,6.3154 -3.3557,9.7994 -0.4987,3.484 -0.208,6.9587 0.8561,10.4253 0.9997,3.2566 2.7523,6.0514 5.2429,8.3934 2.4908,2.3422 5.3089,4.243 8.4525,5.7098 3.1121,1.3615 6.411,2.2159 9.902,2.5686 3.5989,0.3213 7.0058,0.026 10.2354,-0.8913 z"
       style="font-style:normal;font-variant:normal;font-weight:normal;font-stretch:normal;font-size:164.872px;line-height:1.25;font-family:Riffic;-inkscape-font-specification:Riffic;fill:#f1faee;fill-opacity:1;fill-rule:nonzero;stroke:none;stroke-width:0.264583;stroke-miterlimit:4;stroke-dasharray:none"
       id="path836" />
    <path
       id="path1558"
       d="m -1298.5999,-1126.7103 3.393,17.3969 -2.7207,0.3275 z"
       style="font-variation-settings:normal;vector-effect:none;fill:#1d3557;fill-opacity:1;stroke:none;stroke-width:0.264583;stroke-linecap:butt;stroke-linejoin:miter;stroke-miterlimit:4;stroke-dasharray:none;stroke-dashoffset:0;stroke-opacity:1;stop-color:#000000" />
    <path
       d="m -1316.8592,-1000.8468 c -16.1474,-14.7477 -33.0735,-29.0574 -50.676,-42.9198 l 8.9128,49.49485 c -11.8428,2.13911 -23.6711,4.50366 -35.4781,7.07682 -8.8617,-38.91777 -17.7662,-77.82617 -26.7132,-116.72517 11.2774,-1.6795 22.5853,-3.1911 33.9176,-4.5255 19.6289,14.1702 38.5709,28.853 56.7072,44.038 -2.6627,-18.8232 -5.3288,-37.646 -7.9983,-56.4683 13.1241,-2.201 26.3215,-4.1513 39.5873,-5.8344 l 11.9497,122.366 c -10.0717,0.9826 -20.1427,2.1518 -30.209,3.4975 z"
       style="font-style:normal;font-variant:normal;font-weight:normal;font-stretch:normal;font-size:164.872px;line-height:1.25;font-family:Riffic;-inkscape-font-specification:Riffic;fill:#f1faee;fill-opacity:1;fill-rule:nonzero;stroke:none;stroke-width:0.264583;stroke-miterlimit:4;stroke-dasharray:none"
       id="path838" />
    <path
       id="path1564"
       d="m -1277.671,-992.69547 -2.6182,-12.24443 3.2726,-1.4632 -0.6544,13.70763"
       style="font-variation-settings:normal;vector-effect:none;fill:#1d3557;fill-opacity:1;stroke:none;stroke-width:0.264583;stroke-linecap:butt;stroke-linejoin:miter;stroke-miterlimit:4;stroke-dasharray:none;stroke-dashoffset:0;stroke-opacity:1;stop-color:#000000" />
    <path
       id="path1566"
       d="m -1172.6989,-1007.272 -1.9342,12.34311 -3.023,-14.26181 z"
       style="font-variation-settings:normal;vector-effect:none;fill:#1d3557;fill-opacity:1;stroke:none;stroke-width:0.264583;stroke-linecap:butt;stroke-linejoin:miter;stroke-miterlimit:4;stroke-dasharray:none;stroke-dashoffset:0;stroke-opacity:1;stop-color:#000000" />
    <path
       d="m -1202.8852,-1008.1118 c -13.7941,-16.8781 -28.495,-33.3893 -44.0788,-49.4603 l 2.2832,50.2342 c -1.907,0.087 -3.8138,0.1803 -5.7201,0.281 -9.96,0.5141 -19.924,1.2231 -29.8883,2.117 -3.9447,-39.691 -7.9427,-79.3768 -11.9938,-119.0573 11.5248,-0.2824 23.0593,-0.3607 34.5974,-0.2256 0.3836,0.3574 0.7669,0.715 1.1497,1.0729 17.3932,16.2578 33.8595,33.024 49.3729,50.219 -0.01,-19.0154 -0.017,-38.0308 -0.032,-57.0461 13.4258,-0.3513 26.8685,-0.4013 40.3155,-0.1487 l -5.8198,122.8537 c -10.0544,-0.4757 -20.1192,-0.7556 -30.1863,-0.8398 z"
       style="font-style:normal;font-variant:normal;font-weight:normal;font-stretch:normal;font-size:164.872px;line-height:1.25;font-family:Riffic;-inkscape-font-specification:Riffic;fill:#f1faee;fill-opacity:1;fill-rule:nonzero;stroke:none;stroke-width:0.264583;stroke-miterlimit:4;stroke-dasharray:none"
       id="path840" />
    <path
       id="path1568"
       d="m -1162.3823,-1108.7626 2.4755,-17.3726 4.367,14.2762 -0.6681,5.4122 z"
       style="font-variation-settings:normal;vector-effect:none;fill:#1d3557;fill-opacity:1;stroke:none;stroke-width:0.264583;stroke-linecap:butt;stroke-linejoin:miter;stroke-miterlimit:4;stroke-dasharray:none;stroke-dashoffset:0;stroke-opacity:1;stop-color:#000000" />
    <path
       id="path1570"
       d="m -1080.6694,-984.41942 6.0857,-11.8788 -4.8931,-5.94718 -2.8821,16.58374 z"
       style="font-variation-settings:normal;vector-effect:none;fill:#1d3557;fill-opacity:1;stroke:none;stroke-width:0.264583;stroke-linecap:butt;stroke-linejoin:miter;stroke-miterlimit:4;stroke-dasharray:none;stroke-dashoffset:0;stroke-opacity:1;stop-color:#000000" />
    <path
       id="path1572"
       d="m -1084.2927,-1032.4358 5.9256,-14.0003 -6.9684,-2.7728 z"
       style="font-variation-settings:normal;vector-effect:none;fill:#1d3557;fill-opacity:1;stroke:none;stroke-width:0.264583;stroke-linecap:butt;stroke-linejoin:miter;stroke-miterlimit:4;stroke-dasharray:none;stroke-dashoffset:0;stroke-opacity:1;stop-color:#000000" />
    <path
       id="path1574"
       d="m -1070.8643,-1070.695 6.5189,-15.6906 -6.5797,-2.747 -0.945,17.6703 z"
       style="font-variation-settings:normal;vector-effect:none;fill:#1d3557;fill-opacity:1;stroke:none;stroke-width:0.264583;stroke-linecap:butt;stroke-linejoin:miter;stroke-miterlimit:4;stroke-dasharray:none;stroke-dashoffset:0;stroke-opacity:1;stop-color:#000000" />
    <path
       d="m -1125.8845,-1035.1299 c 19.1212,0.9989 38.2383,2.6859 57.301,5.0698 l -6.0002,33.76188 c -27.971,-4.97368 -56.2429,-8.37818 -84.6284,-10.21778 0.1444,-39.8617 -0.087,-79.7365 -0.6947,-119.6192 32.8496,0.6108 65.7405,3.0371 98.4858,7.3054 -0.9434,10.8188 -1.9183,21.6335 -2.9244,32.4442 -19.8373,-3.0539 -39.7654,-5.4051 -59.7372,-7.057 -0.028,4.4703 -0.062,8.9403 -0.1033,13.41 16.2632,0.5339 32.5434,1.5389 48.8143,3.021 -0.9753,10.1948 -1.9738,20.3867 -2.9955,30.5755 -15.6174,-1.4701 -31.2483,-2.4836 -46.8667,-3.0461 -0.212,4.7845 -0.4289,9.5686 -0.6507,14.3523 z"
       style="font-style:normal;font-variant:normal;font-weight:normal;font-stretch:normal;font-size:164.872px;line-height:1.25;font-family:Riffic;-inkscape-font-specification:Riffic;fill:#f1faee;fill-opacity:1;fill-rule:nonzero;stroke:none;stroke-width:0.264583;stroke-miterlimit:4;stroke-dasharray:none"
       id="path842" />
    <path
       id="path1576"
       d="m -1054.1936,-1081.9739 7.2554,-16.1889 15.8896,13.3296 -23.145,2.8593"
       style="font-variation-settings:normal;vector-effect:none;fill:#1d3557;fill-opacity:1;stroke:none;stroke-width:0.264583;stroke-linecap:butt;stroke-linejoin:miter;stroke-miterlimit:4;stroke-dasharray:none;stroke-dashoffset:0;stroke-opacity:1;stop-color:#000000" />
    <path
       id="path1578"
       d="m -1074.9113,-994.77099 6.3401,-12.33611 8.1794,2.7573 -11.9937,9.68847 z"
       style="font-variation-settings:normal;vector-effect:none;fill:#1d3557;fill-opacity:1;stroke:none;stroke-width:0.264583;stroke-linecap:butt;stroke-linejoin:miter;stroke-miterlimit:4;stroke-dasharray:none;stroke-dashoffset:0;stroke-opacity:1;stop-color:#000000" />
    <path
       id="path1580"
       d="m -969.47903,-965.7158 10.99828,-11.05244 -19.99297,-2.29123 8.99469,13.34367"
       style="font-variation-settings:normal;vector-effect:none;fill:#1d3557;fill-opacity:1;stroke:none;stroke-width:0.264583;stroke-linecap:butt;stroke-linejoin:miter;stroke-miterlimit:4;stroke-dasharray:none;stroke-dashoffset:0;stroke-opacity:1;stop-color:#000000" />
    <path
       id="path1582"
       d="m -943.21238,-1052.6301 12.15876,-14.8925 -17.73793,9.3368 z"
       style="font-variation-settings:normal;vector-effect:none;fill:#1d3557;fill-opacity:1;stroke:none;stroke-width:0.264583;stroke-linecap:butt;stroke-linejoin:miter;stroke-miterlimit:4;stroke-dasharray:none;stroke-dashoffset:0;stroke-opacity:1;stop-color:#000000" />
    <path
       d="m -978.78624,-1034.1568 c 7.48864,19.0764 14.2415,38.21746 20.30549,57.38856 -10.76539,2.60254 -21.38874,5.41126 -31.85536,8.42803 -5.31726,-15.22343 -11.09899,-30.4118 -17.37049,-45.54639 -12.47,10.2704 -24.5447,20.81467 -36.1954,31.62866 -1.762,-1.86082 -3.537,-3.7154 -5.3252,-5.56359 -6.2759,-6.50954 -12.7251,-12.94027 -19.344,-19.28557 9.4896,-9.3318 19.2763,-18.4934 29.357,-27.4708 5.1322,-4.5704 10.339,-9.092 15.6181,-13.5644 -2.766,-6.4639 -5.6211,-12.9179 -8.5671,-19.3607 -4.6943,-10.2571 -9.62,-20.4796 -14.775,-30.6598 7.5902,-2.7075 15.2624,-5.3144 23.015,-7.8172 3.6556,-1.1777 7.327,-2.333 11.0138,-3.4658 6.5318,13.4278 12.6682,26.9063 18.42551,40.4237 12.13736,-9.2872 24.60255,-18.3341 37.37278,-27.1376 8.97311,9.4295 17.65507,18.9798 26.05751,28.6371 -16.3984,10.7303 -32.32502,21.8544 -47.73264,33.3658 z"
       style="font-style:normal;font-variant:normal;font-weight:normal;font-stretch:normal;font-size:164.872px;line-height:1.25;font-family:Riffic;-inkscape-font-specification:Riffic;fill:#f1faee;fill-opacity:1;fill-rule:nonzero;stroke:none;stroke-width:0.264583;stroke-miterlimit:4;stroke-dasharray:none"
       id="path844" />
    <path
       id="path1588"
       d="m -939.3695,-944.89327 12.32856,-10.13246 -12.77369,-7.3904 z"
       style="font-variation-settings:normal;vector-effect:none;fill:#1d3557;fill-opacity:1;stroke:none;stroke-width:0.264583;stroke-linecap:butt;stroke-linejoin:miter;stroke-miterlimit:4;stroke-dasharray:none;stroke-dashoffset:0;stroke-opacity:1;stop-color:#000000" />
    <path
       d="m -959.18158,-966.5715 c 13.31288,-38.3601 26.67563,-76.7036 40.0881,-115.0305 12.28242,4.1468 24.46896,8.5288 36.55461,13.1338 -14.88107,37.7964 -29.71514,75.61061 -44.50206,113.44247 -10.65572,-4.05933 -21.37094,-7.91203 -32.14065,-11.54577 z"
       style="font-style:normal;font-variant:normal;font-weight:normal;font-stretch:normal;font-size:164.872px;line-height:1.25;font-family:Riffic;-inkscape-font-specification:Riffic;fill:#f1faee;fill-opacity:1;fill-rule:nonzero;stroke:none;stroke-width:0.264583;stroke-miterlimit:4;stroke-dasharray:none"
       id="path846" />
    <path
       id="path1586"
       d="m -889.73276,-1049.9649 11.76686,-15.6876 -4.53808,23.8614 z"
       style="font-variation-settings:normal;vector-effect:none;fill:#1d3557;fill-opacity:1;stroke:none;stroke-width:0.264583;stroke-linecap:butt;stroke-linejoin:miter;stroke-miterlimit:4;stroke-dasharray:none;stroke-dashoffset:0;stroke-opacity:1;stop-color:#000000" />
    <path
       id="path1590"
       d="m -872.98945,-917.2309 15.26137,-8.91028 c 0,0 -9.04263,-8.30471 -10.36555,-8.58819 -1.32292,-0.28349 -4.89582,17.49847 -4.89582,17.49847 z"
       style="font-variation-settings:normal;vector-effect:none;fill:#1d3557;fill-opacity:1;stroke:none;stroke-width:0.264583;stroke-linecap:butt;stroke-linejoin:miter;stroke-miterlimit:4;stroke-dasharray:none;stroke-dashoffset:0;stroke-opacity:1;stop-color:#000000" />
    <path
       id="path1592"
       d="m -805.52772,-983.11487 18.24197,-11.82116 c 0,0 -12.51829,-13.15557 -12.85238,-13.15557 -0.33409,0 -5.38959,24.97673 -5.38959,24.97673 z"
       style="font-variation-settings:normal;vector-effect:none;fill:#1d3557;fill-opacity:1;stroke:none;stroke-width:0.264583;stroke-linecap:butt;stroke-linejoin:miter;stroke-miterlimit:4;stroke-dasharray:none;stroke-dashoffset:0;stroke-opacity:1;stop-color:#000000" />
    <path
       d="m -787.28575,-994.93603 c -10.19196,-4.60282 -20.4545,-9.05367 -30.78275,-13.34447 -13.23746,27.37119 -26.45733,54.75098 -39.65957,82.13932 -11.18806,-3.95275 -22.41237,-7.69696 -33.66361,-11.22083 12.53073,-28.60513 25.08079,-57.20197 37.65016,-85.79049 -11.07471,-4.1697 -22.21787,-8.15 -33.42377,-11.931 3.09123,-10.1814 6.15775,-20.3711 9.19941,-30.569 34.90281,11.9723 69.1237,25.8005 102.51087,41.2123 -3.91981,9.846 -7.86345,19.6808 -11.83074,29.50417 z"
       style="font-style:normal;font-variant:normal;font-weight:normal;font-stretch:normal;font-size:164.872px;line-height:1.25;font-family:Riffic;-inkscape-font-specification:Riffic;fill:#f1faee;fill-opacity:1;fill-rule:nonzero;stroke:none;stroke-width:0.264583;stroke-miterlimit:4;stroke-dasharray:none"
       id="path848" />
    <path
       id="path1552"
       d="m -1579.1837,-1009.9767 15.2605,12.46492 8.2909,-16.02562 -23.5514,3.5607"
       style="fill:#1d3557;fill-opacity:1;stroke:#065184;stroke-width:0.264583px;stroke-linecap:butt;stroke-linejoin:miter;stroke-opacity:1" />
    <path
       id="path1554"
       d="m -1386.6666,-975.70132 -7.4339,-11.49361 4.5931,-0.99663 2.8408,12.49024"
       style="fill:#1d3557;fill-opacity:1;stroke:#065184;stroke-width:0.264583px;stroke-linecap:butt;stroke-linejoin:miter;stroke-opacity:1" />
  </g>
  <inkscape:templateinfo>
    <inkscape:name>Pixels</inkscape:name>
    <inkscape:date>2020-05-15</inkscape:date>
  </inkscape:templateinfo>
  <inkscape:templateinfo>
    <inkscape:name>Pixels</inkscape:name>
    <inkscape:date>2020-05-17</inkscape:date>
  </inkscape:templateinfo>
</svg>
